<?xml version="1.0" standalone="no"?>
<!DOCTYPE svg PUBLIC "-//W3C//DTD SVG 20010904//EN"
 "http://www.w3.org/TR/2001/REC-SVG-20010904/DTD/svg10.dtd">
<svg version="1.0" xmlns="http://www.w3.org/2000/svg"
 width="500.000000pt" height="500.000000pt" viewBox="0 0 500.000000 500.000000"
 preserveAspectRatio="xMidYMid meet">
<metadata>
Created by potrace 1.14, written by Peter Selinger 2001-2017
</metadata>
<g transform="translate(0.000000,500.000000) scale(0.100000,-0.100000)"
fill="#000000" stroke="none">
<path d="M2 4803 l3 -197 215 -123 c118 -68 218 -123 223 -123 4 0 7 144 7
320 l0 320 -225 0 -225 0 2 -197z"/>
<path d="M803 4893 c4 -58 7 -251 7 -428 l0 -321 33 -17 c17 -8 56 -30 86 -47
l54 -32 -7 81 c-12 134 18 230 107 349 74 98 288 267 431 339 79 40 278 111
416 148 l125 34 -629 0 -629 1 6 -107z"/>
<path d="M3226 4941 c-96 -97 -120 -106 -407 -154 l-252 -43 -39 -39 c-127
-128 -209 -346 -264 -705 -13 -84 -18 -176 -18 -337 -1 -122 1 -224 4 -226 3
-3 239 73 525 168 286 96 528 176 537 178 16 5 16 8 0 58 -13 46 -17 135 -21
607 l-6 553 -59 -60z"/>
<path d="M3652 4573 l3 -428 26 -83 c14 -45 29 -85 32 -88 3 -3 42 13 87 36
44 22 174 84 288 136 236 110 388 185 444 221 44 27 129 151 199 289 42 83 42
84 47 214 l5 130 -567 0 -567 0 3 -427z"/>
<path d="M2070 4680 c-325 -57 -612 -152 -713 -234 l-27 -22 10 -181 c9 -177
35 -335 66 -413 13 -31 39 -49 239 -163 123 -71 228 -128 232 -128 4 0 11 49
15 109 22 353 137 741 284 964 27 40 53 79 57 86 4 6 4 12 0 11 -4 0 -78 -13
-163 -29z"/>
<path d="M4940 4538 c-204 -340 -321 -430 -925 -708 -110 -51 -204 -96 -209
-101 -6 -5 20 -104 68 -256 88 -279 183 -490 321 -708 86 -137 89 -154 45
-241 -16 -32 -28 -59 -27 -61 2 -1 156 -85 344 -186 187 -101 364 -200 392
-221 l51 -38 0 1306 c0 718 -1 1306 -2 1306 -2 0 -28 -41 -58 -92z"/>
<path d="M0 3240 l0 -850 28 0 c15 0 69 -9 121 -19 l95 -18 110 112 c94 94
164 152 345 283 l23 17 -87 300 c-48 165 -100 345 -116 400 -37 125 -69 281
-69 333 l0 41 -221 125 c-122 69 -223 126 -225 126 -2 0 -4 -382 -4 -850z"/>
<path d="M930 3553 c0 -15 152 -538 159 -545 6 -6 302 69 355 91 34 14 39 8
-89 103 -130 97 -206 167 -244 226 -16 26 -38 52 -48 58 -67 41 -133 75 -133
67z"/>
<path d="M3345 3505 c-27 -13 -236 -85 -464 -160 -228 -76 -426 -141 -439
-146 -24 -9 -20 -13 61 -64 75 -47 93 -55 136 -55 104 0 391 -94 806 -265 220
-91 269 -109 263 -97 -2 4 -25 52 -51 107 -28 58 -89 228 -145 403 -53 166
-101 302 -107 301 -5 0 -32 -11 -60 -24z"/>
<path d="M1386 2749 c-104 -11 -180 -27 -198 -42 -13 -10 -8 -38 43 -217 102
-355 132 -487 125 -537 -13 -96 -109 -218 -217 -278 -44 -24 -65 -29 -114 -28
-75 2 -221 52 -394 134 -69 33 -128 56 -132 52 -14 -15 -101 -218 -101 -238
-1 -56 112 -239 229 -371 165 -186 940 -789 1088 -846 l40 -16 -3 122 c-3 85
1 141 12 188 26 113 119 279 213 379 l42 45 -14 55 c-53 199 -64 295 -90 804
-14 275 -25 566 -25 646 l0 146 -157 6 c-185 8 -240 7 -347 -4z"/>
<path d="M2250 2672 c0 -20 11 -248 25 -507 24 -459 33 -544 75 -707 6 -21 15
-56 20 -77 l10 -39 52 20 c210 80 656 116 843 68 263 -67 334 -178 323 -503
-5 -125 -7 -140 -52 -274 -53 -159 -160 -385 -259 -545 l-66 -108 890 0 889 0
0 394 0 395 -152 118 c-84 64 -288 225 -452 356 -390 312 -894 676 -1391 1005
-535 355 -515 342 -642 394 l-113 46 0 -36z"/>
<path d="M759 2413 c-17 -38 -42 -92 -55 -121 l-24 -53 23 -8 c12 -5 62 -27
110 -50 49 -22 86 -35 84 -28 -2 7 -24 83 -48 169 -24 87 -47 158 -51 158 -4
0 -21 -30 -39 -67z"/>
<path d="M4396 1851 c27 -29 599 -479 604 -474 8 8 -257 261 -341 324 -68 52
-288 177 -263 150z"/>
<path d="M2620 1084 c-8 -1 -45 -6 -82 -9 -58 -6 -68 -9 -68 -25 0 -50 274
-796 365 -992 26 -58 27 -58 70 -58 l43 0 55 93 c87 146 155 290 200 421 37
110 41 130 41 221 -1 115 -24 218 -57 253 -30 32 -100 67 -174 86 -44 12 -104
16 -219 15 -88 -1 -166 -3 -174 -5z"/>
<path d="M135 806 c-4 -28 -5 -152 -3 -276 l3 -225 38 -84 c21 -46 56 -115 78
-153 l40 -68 577 0 577 0 -32 21 c-18 12 -90 42 -160 69 -193 71 -252 106
-448 262 -99 78 -289 224 -422 324 l-242 182 -6 -52z"/>
<path d="M2111 704 c-1 -39 6 -93 14 -121 15 -49 86 -156 92 -137 2 5 -21 81
-51 169 l-54 160 -1 -71z"/>
</g>
</svg>
